<svg xmlns="http://www.w3.org/2000/svg" version="1.1" xmlns:xlink="http://www.w3.org/1999/xlink" xmlns:svgjs="http://svgjs.com/svgjs" width="1280" height="1024"><svg version="1.1" id="SvgjsSvg1000" xmlns="http://www.w3.org/2000/svg" xmlns:xlink="http://www.w3.org/1999/xlink" x="0px" y="0px" viewBox="0 0 1280 1024" style="enable-background:new 0 0 1280 1024;" xml:space="preserve">
<style type="text/css">
	.st0{fill:#00E7B4;}
	.st1{fill:#1F3333;}
	.st2{fill:#172626;stroke:#1F3333;stroke-width:26;stroke-linecap:round;stroke-linejoin:round;stroke-miterlimit:10;}
	.st3{fill:none;stroke:#1F3333;stroke-width:26;stroke-linecap:round;stroke-linejoin:round;stroke-miterlimit:10;}
</style>
<path class="st0" d="M286,443v339c-1.9,9.78,315.68,337.01,659.44,3.41c7.77-7.54,12.12-17.85,11.99-28.59l0.87-241.12
	l-157.31,71.04L680,629L376.43,515.69L286,443z"></path>
<g>
	<path class="st0" d="M43.23,326.69c4.87-2.27,2.07-1.21,4.46-1.73c1.13-0.25,2.23-0.61,3.3-1.06L605,92c4.93-2.05,13.07,1.95,18,4
		l607.3,252.62c5.78,2.4,5.8,10.58,0.03,13.02L636.92,612.11c-4.86,1.98-46.24,7.26-51.09,5.28L42.06,389.22
		c-10.01-4.2-16.76-13.77-17.32-24.62C23.81,346.38,29.24,333.23,43.23,326.69z"></path>
</g>
<g>
	<path class="st1" d="M655.93,117.54L1246,371.11l-590.07,248.6L67.38,371.11L655.93,117.54 M655.93,91.54c-3.5,0-7,0.71-10.29,2.12
		L57.09,347.23c-9.57,4.12-15.75,13.55-15.71,23.97c0.04,10.42,6.29,19.81,15.88,23.86l588.55,248.6c3.23,1.37,6.68,2.05,10.12,2.05
		c3.43,0,6.87-0.68,10.09-2.04l590.07-248.6c9.61-4.05,15.87-13.44,15.91-23.87c0.04-10.42-6.16-19.86-15.73-23.98L666.19,93.65
		C662.91,92.24,659.42,91.54,655.93,91.54L655.93,91.54z"></path>
</g>
<line class="st2" x1="150.69" y1="440.86" x2="150.69" y2="688.5"></line>
<circle class="st1" cx="149.93" cy="713.73" r="55.8"></circle>
<path class="st3" d="M986.89,859.72"></path>
<path class="st3" d="M320.38,515.76V789.4c-2.02,9.78,323.88,345.88,672.62,0V515.76"></path>
</svg><style>@media (prefers-color-scheme: light) { :root { filter: none; } }
</style></svg>