<?xml version="1.0" encoding="utf-8"?>
<!-- Generator: Adobe Illustrator 24.1.1, SVG Export Plug-In . SVG Version: 6.00 Build 0)  -->
<svg version="1.1" id="Calque_1" xmlns="http://www.w3.org/2000/svg" xmlns:xlink="http://www.w3.org/1999/xlink" x="0px" y="0px"
	 viewBox="0 0 1280 1024" style="enable-background:new 0 0 1280 1024;" xml:space="preserve">
<style type="text/css">
	.st0{fill:#4CB6AC;}
	.st1{fill:#273137;}
	.st2{fill:#172626;stroke:#273137;stroke-width:34;stroke-linecap:round;stroke-linejoin:round;stroke-miterlimit:10;}
	.st3{fill:none;stroke:#1F3333;stroke-width:26;stroke-linecap:round;stroke-linejoin:round;stroke-miterlimit:10;}
	.st4{fill:none;stroke:#273137;stroke-width:34;stroke-linecap:round;stroke-linejoin:round;stroke-miterlimit:10;}
</style>
<path class="st0" d="M274,402v339c-1.9,9.78,315.68,337.01,659.44,3.41c7.77-7.54,12.12-17.85,11.99-28.59l0.87-241.12
	l-157.31,71.04L668,588L364.43,474.69L274,402z"/>
<g>
	<path class="st0" d="M618,111c4.93-2.05,13.07,1.95,18,4l607.3,252.62c5.78,2.4,5.8,10.58,0.03,13.02L649.92,631.11
		c-4.86,1.98-46.24,7.26-51.09,5.28L55.06,408.22C45.05,404.02,18.96,392.11,15,382c-9-23,2-45,43-59"/>
</g>
<g>
	<path class="st1" d="M648.93,119.54L1239,373.11l-590.07,248.6L60.38,373.11L648.93,119.54 M648.93,85.54
		c-4.58,0-9.16,0.92-13.45,2.77L46.93,341.89c-12.51,5.39-20.6,17.73-20.55,31.35c0.05,13.62,8.22,25.9,20.77,31.2l588.55,248.6
		c4.23,1.79,8.73,2.68,13.23,2.68c4.49,0,8.98-0.89,13.2-2.67l590.07-248.6c12.56-5.29,20.75-17.58,20.8-31.21
		c0.05-13.63-8.05-25.98-20.58-31.36L662.35,88.3C658.06,86.46,653.49,85.54,648.93,85.54L648.93,85.54z"/>
</g>
<line class="st2" x1="142.69" y1="426.86" x2="142.69" y2="674.5"/>
<circle class="st1" cx="142.93" cy="674.73" r="55.8"/>
<path class="st3" d="M979.89,861.72"/>
<path class="st4" d="M313,499v272.4c-1.64,14.78,361,310.6,673-34V502"/>
</svg>
